/* XPM */
static char *_____________[] = {
/* columns rows colors chars-per-pixel */
"64 64 256 2",
"   c #010003",
".  c #0C0003",
"X  c #010009",
"o  c #120202",
"O  c #170808",
"+  c #1C110E",
"@  c #180B17",
"#  c #1B1318",
"$  c #2A0B01",
"%  c #260905",
"&  c #20150F",
"*  c #3A180B",
"=  c #221418",
"-  c #261516",
";  c #341B12",
":  c #31161D",
">  c #330D19",
",  c #3C240F",
"<  c #3A2314",
"1  c #1E1B30",
"2  c #1D1723",
"3  c #2D1E22",
"4  c #362322",
"5  c #3A2523",
"6  c #3C2725",
"7  c #3F352E",
"8  c #4D1902",
"9  c #401E1E",
"0  c #522C0E",
"q  c #492513",
"w  c #4A2B15",
"e  c #452A1B",
"r  c #442915",
"t  c #532D15",
"y  c #512513",
"u  c #4C341C",
"i  c #55331D",
"p  c #5B341B",
"a  c #5F361A",
"s  c #4A2409",
"d  c #653A1E",
"f  c #62371A",
"g  c #482927",
"h  c #552E26",
"j  c #4C3224",
"k  c #4D342B",
"l  c #463129",
"z  c #533322",
"x  c #593A23",
"c  c #52352B",
"v  c #5C372D",
"b  c #543A2B",
"n  c #5A3C2D",
"m  c #442D31",
"M  c #512C32",
"N  c #443631",
"B  c #4E3D33",
"V  c #5D3B33",
"C  c #563837",
"Z  c #623B21",
"A  c #6D3D25",
"S  c #6B3D2C",
"D  c #633B31",
"F  c #544021",
"G  c #56413D",
"H  c #5B463A",
"J  c #654326",
"K  c #65432D",
"L  c #6A452B",
"P  c #6A4626",
"I  c #734A2B",
"U  c #72462C",
"Y  c #634333",
"T  c #6C4933",
"R  c #6C4D3D",
"E  c #684636",
"W  c #714631",
"Q  c #744D36",
"!  c #7C4E32",
"~  c #704F3A",
"^  c #6E513C",
"/  c #765036",
"(  c #7D5234",
")  c #7D543C",
"_  c #78563C",
"`  c #7A552C",
"'  c #624A4B",
"]  c #6A514E",
"[  c #7A5542",
"{  c #745A40",
"}  c #7A5C46",
"|  c #74574D",
" . c #7A5D57",
".. c #7C6257",
"X. c #7E6862",
"o. c #81421E",
"O. c #804E39",
"+. c #845635",
"@. c #83513C",
"#. c #83593E",
"$. c #8B5E3C",
"%. c #8C5735",
"&. c #965B38",
"*. c #865328",
"=. c #8D623D",
"-. c #94633E",
";. c #A2623A",
":. c #835D44",
">. c #8B5D44",
",. c #8A5F4A",
"<. c #945E45",
"1. c #845D52",
"2. c #8C6444",
"3. c #8A6249",
"4. c #89664A",
"5. c #926643",
"6. c #966944",
"7. c #9A6A47",
"8. c #936549",
"9. c #916A4E",
"0. c #9C6C4A",
"q. c #996748",
"w. c #99714D",
"e. c #8B6653",
"r. c #8A6A55",
"t. c #946C51",
"y. c #9B6D53",
"u. c #956E5D",
"i. c #837054",
"p. c #9C7552",
"a. c #9A725B",
"s. c #987759",
"d. c #A46543",
"f. c #A26946",
"g. c #A46E4C",
"h. c #A86F4C",
"j. c #AD7646",
"k. c #A3724D",
"l. c #AC734B",
"z. c #B57D4E",
"x. c #BB7C4B",
"c. c #B67648",
"v. c #AE6C51",
"b. c #A37452",
"n. c #AC7352",
"m. c #AB7A52",
"M. c #AB7B5A",
"N. c #A37C58",
"B. c #B27B55",
"V. c #B97A51",
"C. c #B67B57",
"Z. c #906B60",
"A. c #997A61",
"S. c #A47B62",
"D. c #AD7D62",
"F. c #A27E6A",
"G. c #B37E62",
"H. c #C17D4C",
"J. c #C47D44",
"K. c #AB805A",
"L. c #BB8154",
"P. c #B5815C",
"I. c #BA845C",
"U. c #BD885D",
"Y. c #B18556",
"T. c #AC8465",
"R. c #A5836C",
"E. c #B48363",
"W. c #BB8462",
"Q. c #B68963",
"!. c #BD8962",
"~. c #B6866A",
"^. c #B4896B",
"/. c #BD8C68",
"(. c #AC9269",
"). c #BB926E",
"_. c #A18177",
"`. c #B78A70",
"'. c #BB957D",
"]. c #C7854F",
"[. c #C48154",
"{. c #C4855B",
"}. c #C58A5D",
"|. c #CA8B5C",
" X c #CA8456",
".X c #D58F5C",
"XX c #D08852",
"oX c #CC935A",
"OX c #DC935D",
"+X c #D5925F",
"@X c #E29459",
"#X c #C18664",
"$X c #C38B63",
"%X c #C68E6B",
"&X c #C58A68",
"*X c #D18E68",
"=X c #C49167",
"-X c #CE9266",
";X c #C4926D",
":X c #CB956C",
">X c #D39565",
",X c #DB9564",
"<X c #D3956A",
"1X c #DB9A6C",
"2X c #D59A67",
"3X c #C18E70",
"4X c #C4967A",
"5X c #D59B74",
"6X c #E19E6C",
"7X c #E19B70",
"8X c #DAA06D",
"9X c #CEA47F",
"0X c #D4A274",
"qX c #DDA074",
"wX c #D2A17A",
"eX c #DFA67A",
"rX c #E5A46F",
"tX c #EAA16D",
"yX c #EDA86B",
"uX c #E4A373",
"iX c #E4AB76",
"pX c #EDAB72",
"aX c #E6AD7A",
"sX c #ECAB7C",
"dX c #E2A67B",
"fX c #F2AE7D",
"gX c #F9AD7A",
"hX c #F6AD73",
"jX c #EFB279",
"kX c #FCBC75",
"lX c #F3B37E",
"zX c #FDB57C",
"xX c #FFBA7E",
"cX c #F7B77B",
"vX c #DCAB85",
"bX c #D8A685",
"nX c #D9AF97",
"mX c #C5A494",
"MX c #E7AA82",
"NX c #E5B284",
"BX c #E9B689",
"VX c #F4B382",
"CX c #FEB582",
"ZX c #FDBB84",
"AX c #F4B98B",
"SX c #F0B18A",
"DX c #EAB593",
"FX c #F4BA93",
"GX c #FFC485",
"HX c #FEC48F",
"JX c #FFCB8A",
"KX c #FDC292",
"LX c #FFC995",
"PX c #FBC596",
"IX c #F8C9A0",
"UX c None",
/* pixels */
"UXUXUXUXUXUXUXUXUXUXUXUXUXUXUXUXUXUXUXUXUXUXUXUXUXUXUXUXUXUXUXUXUXUXUXUXUXUXUXUXUXUXUXUXUXUXUXUXUXUXUXUXUXUXUXUXUXUXUXUXUXUXUXUX",
"UXUXUXUXUXUXUXUXUXUXUXUXUXUXUXUXUXUXUXUXUXUXUXUXUXUXUXUXUXUXUXUXUXUXUXUXUXUXUXUXUXUXUXUXUXUXUXUXUXUXUXUXUXUXUXUXUXUXUXUXUXUXUXUX",
"UXUXUXUXUXUXUXUXUXUXUXUXUXUXUXUXUXUXUXUXUXUXUXUXUXUXUXUXUXUXUXUXUXUXUXUXUXUXUXUXUXUXUXUXUXUXUXUXUXUXUXUXUXUXUXUXUXUXUXUXUXUXUXUX",
"UXUXUXUXUXUXUXUXUXUXUXUXUXUXUXUXUXUXUXUXUXUXUXUXUXUXUXUXUXUXUXUXUXUXUXUXUXUXUXUXUXUXUXUXUXUXUXUXUXUXUXUXUXUXUXUXUXUXUXUXUXUXUXUX",
"UXUXUXUXUXUXUXUXUXUXUXUXUXUXUXUXUXUXUXUXUXUXUXUXUXUXUXUXUXUXUXUXUXUXUXUXUXUXUXUXUXUXUXUXUXUXUXUXUXUXUXUXUXUXUXUXUXUXUXUXUXUXUXUX",
"UXUXUXUXUXUXUXUXUXUXUXUXUXUXUXUXUXUXUXUXUXUXUXUXUXUXUXUXUXUXUXUXUXUXUXUXUXUXUXUXUXUXUXUXUXUXUXUXUXUXUXUXUXUXUXUXUXUXUXUXUXUXUXUX",
"UXUXUXUXUXUXUXUXUXUXUXUXUXUXUXUXUXUXUXUXUXUXUXUXUXUXUXUXUXUXUXUXUXUXUXUXUXUXUXUXUXUXUXUXUXUXUXUXUXUXUXUXUXUXUXUXUXUXUXUXUXUXUXUX",
"UXUXUXUXUXUXUXUXUXUXUXUXUXUXUXUXUXUXUXUXUXUXUXUXUXUXUXUXUXUXUXUXUXUXUXUXUXUXUXUXUXUXUXUXUXUXUXUXUXUXUXUXUXUXUXUXUXUXUXUXUXUXUXUX",
"UXUXUXUXUXUXUXUXUXUXUXUXUXUXUXUXUXUXUXUXUXUXUXUXUXUXUXUXUXUXUXUXUXUXUXUXUXUXUXUXUXUXUXUXUXUXUXUXUXUXUXUXUXUXUXUXUXUXUXUXUXUXUXUX",
"UXUXUXUXUXUXUXUXUXUXUXUXUXUXUXUXUXUXUXUXUXUXUXUXUXUXUXUXUXUXUXUXUXUXUXUXUXUXUXUXUXUXUXUXUXUXUXUXUXUXUXUXUXUXUXUXUXUXUXUXUXUXUXUX",
"UXUXUXUXUXUXUXUXUXUXUXUXUXUXUXUXUXUXUXUXUXUXUXUXUXUXUXUXUXUXUXUXUXUXUXUXUXUXUXUXUXUXUXUXUXUXUXUXUXUXUXUXUXUXUXUXUXUXUXUXUXUXUXUX",
"UXUXUXUXUXUXUXUXUXUXUXUXUXUXUXUXUXUXUXUXUXUXUXUXUXUXUXUXUXUXUXUXUXUXUXUXUXUXUXUXUXUXUXUXUXUXX X UXX X UXUXUXUXUXUXUXUXUXUXUXUXUX",
"UXUXUXUXUXUXUXUXUXUXUXUXUXUXUXUXUXUXUXUXUXUXUXUXUXUXUXUXUXUXUXUXUXUXUXUXUXUXUXUXUXUXUXUXUX' r.^ R F.a.1.4 UXUXUXUXUXUXUXUXUXUXUX",
"UXUXUXUXUXUXUXUXUXUXUXUXUXUXUXUXUXUXUXUXUXUXUXUXUXUXUXUXUXUXUXUXUXUXUXUXUXUXUXUXUXUXX G _ I Q E t.( 2.P s.r.6   UXUXUXUXUXUXUXUX",
"UXUXUXUXUXUXUXUXUXUXUXUXUXUXUXUXUXUXUXUXUXUXUXUXUXUXUXUXUXUXUXUXUX1 N &   UXUXUXUXX % wXlX8X8.V > V E I =.7.9.] UXUXUXUXUXUXUXUX",
"UXUXUXUXUXUXUXUXUXUXUXUXUXUXUXUXUXUXUXUXUXUXUXUXUXUXUXUXUXUXUXUXUXUXZ.mX..+ G R #.3.3X;.[.:XS., u F J J ) W S q 6 UXUXUXUXUXUXUX",
"UXUXUXUXUXUXUXUXUXUXUXUXUXUXUXUXUXUXUXUXUXUXUXUXUXUXUXUXUXUXUXUXUXUX  V 0.|.CXxXgX:XB.n.G.S.w r e n ..; 9 M h :.r O UXUXUXUXUXUX",
"UXUXUXUXUXUXUXUXUXUXUXUXUXUXUXUXUXUXUXUXUXUXUXUXUXUXUXUXUXUXUXUXUXUXo a.sX@XgXtXuXA p L i * z z D.`.O.,.[ w u K e.& UXUXUXUXUXUX",
"UXUXUXUXUXUXUXUXUXUXUXUXUXUXUXUXUXUXUXUXUXUXUXUXUXUXUXUXUXUXUXX O | bXL.].lXV.!.! ) ) i H < * ~.U.!.8 ! 3X+.0 t Y X.X UXUXUXUXUX",
"UXUXUXUXUXUXUXUXUXUXUXUXUXUXUXUXUXUXUXUXUXUXUXUXUXUXUXUXUXUX  G IXGXhX6XfX>X7.p _ f f * o ; b.c.! d :.t.8.5Xq.R l = UXUXUXUXUXUX",
"UXUXUXUXUXUXUXUXUXUXUXUXUXUXUXUXUXUXUXUXUXUXUXUXUXUXUXUXUXUX; BXGXkXzXcXB.U q / 3.3.e $ #.U.{.5Xq.! 3.[ $ j ] 6 # UXUXUXUXUXUXUX",
"UXUXUXUXUXUXUXUXUXUXUXUXUXUXUXUXUXUXUXUXUXUXUXUXUXUXUXUXUXo vXJXkXkXGX}.p l B j J L K T.!.|.*Xv.B.0.@.Y 5 UXUXUXUXUXUXUXUXUXUXUX",
"UXUXUXUXUXUXUXUXUXUXUXUXUXUXUXUXUXUXUXUXUXUXUXUXUXUXUX  V }.ZXjXlXHXdXd e 7 B r Z $.<XH.0Xp.<.v.d.f.y.Y . UXUXUXUXUXUXUXUXUXUXUX",
"UXUXUXUXUXUXUXUXUXUXUXUXUXUXUXUXUXUXUXUXUXUXUXUXUXUXo a.AXzXJ.L.=.vXI w u , q $.;X<X.X.Xm.i U n.g.M.u.C UXUXUXUXUXUXUXUXUXUXUXUX",
"UXUXUXUXUXUXUXUXUXUXUXUXUXUXUXUXUXUXUXUXUXUXUXUXUX% %XZXZXoXKXBX5.a n E t 6.aXlXpXtXV.G.a 7./.g.t.} 5 UXUXUXUXUXUXUXUXUXUXUXUXUX",
"UXUXUXUXUXUXUXUXUXUXUXUXUXUXUXUXUXUXUXUXUXUXUX  H bXpXxXpXj.l.m.J Y / d wXLXtXtX,XL.:X&XI.I.#.e = UXUXUXUXUXUXUXUXUXUXUXUXUXUXUX",
"UXUXUXUXUXUXUXUXUXUXUXUXUXUXUXUXUXUXUXUXUXUX. t.PXc.VX,XuXP.#.i L 9.5XvX7.%.1X X,X<X-X|.1Xq.c UXUXUXUXUXUXUXUXUXUXUXUXUXUXUXUXUX",
"UXUXUXUXUXUXUXUXUXUXUXUXUXUXUXUXUXUXUXUXUX+ '.VXOXCXlXqXm.T b K 0.z.KX:Xs ) !.1XOX,X1X&.`.Y 3 UXUXUXUXUXUXUXUXUXUXUXUXUXUXUXUXUX",
"UXUXUXUXUXUXUXUXUXUXUXUXUXUXUXUXUXUXUX  n DX0XBXAXsX X5.t Z ) 4XeXx.x.*.b.Q.C.{.<XC.3.c 6 UXUXUXUXUXUXUXUXUXUXUXUXUXUXUXUXUXUXUX",
"UXUXUXUXUXUXUXUXUXUXUXUXUXUXUXUXUXUXO s.NX2XZXj.$XE.Q i Z f.sXfXc.l.!.$X{.[.{.>.c - # UXUXUXUXUXUXUXUXUXUXUXUXUXUXUXUXUXUXUXUXUX",
"UXUXUXUXUXUXUXUXUXUXUXUXUXUXUXUXUX4 4XiX8X<X<X-X-.p H Q $XsXgX Xl.^.W.!.#X#X8.5 2 UXUXUXUXUXUXUXUXUXUXUXUXUXUXUXUXUXUXUXUXUXUXUX",
"UXUXUXUXUXUXUXUXUXUXUXUXUXUXUX  v DX<XrXZXqX0.[ w L $.uXVX6Xc.P.b.L L.%Xa.| - UXUXUXUXUXUXUXUXUXUXUXUXUXUXUXUXUXUXUXUXUXUXUXUXUX",
"UXUXUXUXUXUXUXUXUXUXUXUXUXUXX e.VX+XfXCX>Xk.x b T E.VX-.$Xx.#X,.9.2XQ.~ : UXUXUXUXUXUXUXUXUXUXUXUXUXUXUXUXUXUXUXUXUXUXUXUXUXUXUX",
"UXUXUXUXUXUXUXUXUXUXUXUXUX; nX=X,XZXsXM.Q q L +.MX&.eX[.W.A.s.Q.=XM.l o UXUXUXUXUXUXUXUXUXUXUXUXUXUXUXUXUXUXUXUXUXUXUXUXUXUXUXUX",
"UXUXUXUXUXUXUXUXUXUXUX   .FXXXaXHXuXh.b b Q 0.VXgX|.K.W.$.i.(.Y.#.m UXUXUXUXUXUXUXUXUXUXUXUXUXUXUXUXUXUXUXUXUXUXUXUXUXUXUXUXUXUX",
"UXUXUXUXUXUXUXUXUXUX  9.FX&.-Xz.NX6.a T ( =XAXrXx.$Xp.{ T.-XM.n UXUXUXUXUXUXUXUXUXUXUXUXUXUXUXUXUXUXUXUXUXUXUXUXUXUXUXUXUXUXUXUX",
"UXUXUXUXUXUXUXUXUXUX'.cXoX$.w w.P z K l.zXgX>Xm.M.I w.9XP.@.: UXUXUXUXUXUXUXUXUXUXUXUXUXUXUXUXUXUXUXUXUXUXUXUXUXUXUXUXUXUXUXUXUX",
"UXUXUXUXUXUXUXUX  s.ZXiXLXB.v K x z 4XZXzX{.I.5.! ~.^.b.Y UXUXUXUXUXUXUXUXUXUXUXUXUXUXUXUXUXUXUXUXUXUXUXUXUXUXUXUXUXUXUXUXUXUXUX",
"UXUXUXUXUXUXUXUX2.JXpXMX;.o.&.i k e.g.sXU.S.I k.%XW.>.m UXUXUXUXUXUXUXUXUXUXUXUXUXUXUXUXUXUXUXUXUXUXUXUXUXUXUXUXUXUXUXUXUXUXUXUX",
"UXUXUXUXUXUX+ L.PXH.L.6.t D q $ } r 4.W.W { M.-Xg.g UXUXUXUXUXUXUXUXUXUXUXUXUXUXUXUXUXUXUXUXUXUXUXUXUXUXUXUXUXUXUXUXUXUXUXUXUXUX",
"UXUXUXUXX 4 R.LXZXOX:XN./ $ , 7XKX0.< Y y.;X^.Y - UXUXUXUXUXUXUXUXUXUXUXUXUXUXUXUXUXUXUXUXUXUXUXUXUXUXUXUXUXUXUXUXUXUXUXUXUXUXUX",
"UXUXUXUX' v +.dX$Xm.-.` ).$.NXSX#XA ( $X<Xn.R UXUXUXUXUXUXUXUXUXUXUXUXUXUXUXUXUXUXUXUXUXUXUXUXUXUXUXUXUXUXUXUXUXUXUXUXUXUXUXUXUX",
"UXUXUXUX@ o _.h 3 4 2.|./.Q.<X%.-.>X1XV.,.k UXUXUXUXUXUXUXUXUXUXUXUXUXUXUXUXUXUXUXUXUXUXUXUXUXUXUXUXUXUXUXUXUXUXUXUXUXUXUXUXUXUX",
"UXUXUXUXUXUXUXUXUXX y.gX$X2.d.,XyX}.s.C @ UXUXUXUXUXUXUXUXUXUXUXUXUXUXUXUXUXUXUXUXUXUXUXUXUXUXUXUXUXUXUXUXUXUXUXUXUXUXUXUXUXUXUX",
"UXUXUXUXUXUXUXUXUXk 4X*X}.$X<X#X[ N UXUXUXUXUXUXUXUXUXUXUXUXUXUXUXUXUXUXUXUXUXUXUXUXUXUXUXUXUXUXUXUXUXUXUXUXUXUXUXUXUXUXUXUXUXUX",
"UXUXUXUXUXUXUXUXUXR.A D.:XL.:.= UXUXUXUXUXUXUXUXUXUXUXUXUXUXUXUXUXUXUXUXUXUXUXUXUXUXUXUXUXUXUXUXUXUXUXUXUXUXUXUXUXUXUXUXUXUXUXUX",
"UXUXUXUXUXUXUXUXUXUX5 y u.' UXUXUXUXUXUXUXUXUXUXUXUXUXUXUXUXUXUXUXUXUXUXUXUXUXUXUXUXUXUXUXUXUXUXUXUXUXUXUXUXUXUXUXUXUXUXUXUXUXUX",
"UXUXUXUXUXUXUXUXUXUXg 1.= UXUXUXUXUXUXUXUXUXUXUXUXUXUXUXUXUXUXUXUXUXUXUXUXUXUXUXUXUXUXUXUXUXUXUXUXUXUXUXUXUXUXUXUXUXUXUXUXUXUXUX",
"UXUXUXUXUXUXUXUXUXUXg o UXUXUXUXUXUXUXUXUXUXUXUXUXUXUXUXUXUXUXUXUXUXUXUXUXUXUXUXUXUXUXUXUXUXUXUXUXUXUXUXUXUXUXUXUXUXUXUXUXUXUXUX",
"UXUXUXUXUXUXUXUXUXUXUXUXUXUXUXUXUXUXUXUXUXUXUXUXUXUXUXUXUXUXUXUXUXUXUXUXUXUXUXUXUXUXUXUXUXUXUXUXUXUXUXUXUXUXUXUXUXUXUXUXUXUXUXUX",
"UXUXUXUXUXUXUXUXUXUXUXUXUXUXUXUXUXUXUXUXUXUXUXUXUXUXUXUXUXUXUXUXUXUXUXUXUXUXUXUXUXUXUXUXUXUXUXUXUXUXUXUXUXUXUXUXUXUXUXUXUXUXUXUX",
"UXUXUXUXUXUXUXUXUXUXUXUXUXUXUXUXUXUXUXUXUXUXUXUXUXUXUXUXUXUXUXUXUXUXUXUXUXUXUXUXUXUXUXUXUXUXUXUXUXUXUXUXUXUXUXUXUXUXUXUXUXUXUXUX",
"UXUXUXUXUXUXUXUXUXUXUXUXUXUXUXUXUXUXUXUXUXUXUXUXUXUXUXUXUXUXUXUXUXUXUXUXUXUXUXUXUXUXUXUXUXUXUXUXUXUXUXUXUXUXUXUXUXUXUXUXUXUXUXUX",
"UXUXUXUXUXUXUXUXUXUXUXUXUXUXUXUXUXUXUXUXUXUXUXUXUXUXUXUXUXUXUXUXUXUXUXUXUXUXUXUXUXUXUXUXUXUXUXUXUXUXUXUXUXUXUXUXUXUXUXUXUXUXUXUX",
"UXUXUXUXUXUXUXUXUXUXUXUXUXUXUXUXUXUXUXUXUXUXUXUXUXUXUXUXUXUXUXUXUXUXUXUXUXUXUXUXUXUXUXUXUXUXUXUXUXUXUXUXUXUXUXUXUXUXUXUXUXUXUXUX",
"UXUXUXUXUXUXUXUXUXUXUXUXUXUXUXUXUXUXUXUXUXUXUXUXUXUXUXUXUXUXUXUXUXUXUXUXUXUXUXUXUXUXUXUXUXUXUXUXUXUXUXUXUXUXUXUXUXUXUXUXUXUXUXUX",
"UXUXUXUXUXUXUXUXUXUXUXUXUXUXUXUXUXUXUXUXUXUXUXUXUXUXUXUXUXUXUXUXUXUXUXUXUXUXUXUXUXUXUXUXUXUXUXUXUXUXUXUXUXUXUXUXUXUXUXUXUXUXUXUX",
"UXUXUXUXUXUXUXUXUXUXUXUXUXUXUXUXUXUXUXUXUXUXUXUXUXUXUXUXUXUXUXUXUXUXUXUXUXUXUXUXUXUXUXUXUXUXUXUXUXUXUXUXUXUXUXUXUXUXUXUXUXUXUXUX",
"UXUXUXUXUXUXUXUXUXUXUXUXUXUXUXUXUXUXUXUXUXUXUXUXUXUXUXUXUXUXUXUXUXUXUXUXUXUXUXUXUXUXUXUXUXUXUXUXUXUXUXUXUXUXUXUXUXUXUXUXUXUXUXUX",
"UXUXUXUXUXUXUXUXUXUXUXUXUXUXUXUXUXUXUXUXUXUXUXUXUXUXUXUXUXUXUXUXUXUXUXUXUXUXUXUXUXUXUXUXUXUXUXUXUXUXUXUXUXUXUXUXUXUXUXUXUXUXUXUX",
"UXUXUXUXUXUXUXUXUXUXUXUXUXUXUXUXUXUXUXUXUXUXUXUXUXUXUXUXUXUXUXUXUXUXUXUXUXUXUXUXUXUXUXUXUXUXUXUXUXUXUXUXUXUXUXUXUXUXUXUXUXUXUXUX",
"UXUXUXUXUXUXUXUXUXUXUXUXUXUXUXUXUXUXUXUXUXUXUXUXUXUXUXUXUXUXUXUXUXUXUXUXUXUXUXUXUXUXUXUXUXUXUXUXUXUXUXUXUXUXUXUXUXUXUXUXUXUXUXUX",
"UXUXUXUXUXUXUXUXUXUXUXUXUXUXUXUXUXUXUXUXUXUXUXUXUXUXUXUXUXUXUXUXUXUXUXUXUXUXUXUXUXUXUXUXUXUXUXUXUXUXUXUXUXUXUXUXUXUXUXUXUXUXUXUX",
"UXUXUXUXUXUXUXUXUXUXUXUXUXUXUXUXUXUXUXUXUXUXUXUXUXUXUXUXUXUXUXUXUXUXUXUXUXUXUXUXUXUXUXUXUXUXUXUXUXUXUXUXUXUXUXUXUXUXUXUXUXUXUXUX"
};
